<svg id="Layer_1" data-name="Layer 1" xmlns="http://www.w3.org/2000/svg" viewBox="0 0 216 79.61"><defs><style>.cls-1{fill:#fff;}.cls-2{fill:#a2d45e;}.cls-3{fill:#00b2e3;}</style></defs><title>Intrado-HouseCalls-Pro-Reverse</title><path class="cls-1" d="M59,70.39H51.29V33.33H59Z" transform="translate(-51.29 -10.65)"/><path class="cls-1" d="M89.64,70.39H81.93V54.32a4.66,4.66,0,0,0-1.43-3.43,4.76,4.76,0,0,0-3.45-1.41,4.83,4.83,0,0,0-4.85,4.84V70.39H64.5V42.5h7.7V44a8.42,8.42,0,0,1,6-2.2,10.6,10.6,0,0,1,8.18,3.65,12.81,12.81,0,0,1,3.31,8.9Z" transform="translate(-51.29 -10.65)"/><path class="cls-1" d="M107.49,50.21h-3.67V70.39h-7.7V50.21H92.45V42.5h3.67V33.33h7.7V42.5h3.67Z" transform="translate(-51.29 -10.65)"/><path class="cls-1" d="M125,49.48h-1.29a4.81,4.81,0,0,0-4.84,4.84V70.39h-7.71V42.5h7.71V44a8.67,8.67,0,0,1,6.13-2.2Z" transform="translate(-51.29 -10.65)"/><path class="cls-1" d="M155.65,70.39h-7.71v-1.9q-2.31,2.64-7.7,2.64a13.07,13.07,0,0,1-10-4.26,14.73,14.73,0,0,1-4-10.42,14.59,14.59,0,0,1,4-10.4,13.1,13.1,0,0,1,9.91-4.28q5.31,0,7.7,2.68v-2h7.71Zm-7.71-13.94a6.93,6.93,0,1,0-2,4.94A6.76,6.76,0,0,0,147.94,56.45Z" transform="translate(-51.29 -10.65)"/><path class="cls-1" d="M188.81,70.39H181.1v-1.9q-2.31,2.64-7.71,2.64a13.05,13.05,0,0,1-10-4.26,14.73,14.73,0,0,1-4-10.42,14.58,14.58,0,0,1,4-10.4,13.13,13.13,0,0,1,9.91-4.28q5.33,0,7.71,2.68V33.33h7.71ZM181.1,56.45a6.95,6.95,0,1,0-2,4.94A6.73,6.73,0,0,0,181.1,56.45Z" transform="translate(-51.29 -10.65)"/><path class="cls-1" d="M222,56.45A14.68,14.68,0,1,1,196.9,46.06,14.69,14.69,0,0,1,222,56.45Zm-7.71,0a6.95,6.95,0,1,0-2,4.94A6.73,6.73,0,0,0,214.26,56.45Z" transform="translate(-51.29 -10.65)"/><path class="cls-2" d="M236.62,24l24.31-13.34,4.16,1.56v6.07L251,24Zm12.63,7,14.87,1.71,3.17-3.84-2.88-3.37H236.62Z" transform="translate(-51.29 -10.65)"/><path class="cls-3" d="M215.72,24l-14.11-5.71V12.21l4.16-1.56L230.08,24Zm14.36,1.47H202.29l-2.88,3.37,3.17,3.84L217.45,31Z" transform="translate(-51.29 -10.65)"/><polygon class="cls-1" points="183.05 45.09 184.16 14.81 179.94 14.81 181.04 45.09 183.05 45.09"/><path class="cls-1" d="M235.9,21.42a2.57,2.57,0,1,1-2.56-2.56A2.57,2.57,0,0,1,235.9,21.42Z" transform="translate(-51.29 -10.65)"/><path class="cls-3" d="M53.37,82.22h8.21V76.14h1.75V90.05H61.58V83.87H53.37v6.18H51.62V76.14h1.75Z" transform="translate(-51.29 -10.65)"/><path class="cls-3" d="M75.59,85.33a5,5,0,1,1-5-4.92A4.84,4.84,0,0,1,75.59,85.33Zm-8.32,0a3.33,3.33,0,1,0,3.33-3.39A3.27,3.27,0,0,0,67.27,85.33Z" transform="translate(-51.29 -10.65)"/><path class="cls-3" d="M86.12,86.09a4,4,0,0,1-4.3,4.16c-2.27,0-4.31-1.3-4.31-4.16V80.61h1.63V86a2.68,2.68,0,1,0,5.36,0V80.61h1.62Z" transform="translate(-51.29 -10.65)"/><path class="cls-3" d="M95.12,82.71a5.87,5.87,0,0,0-3-.88c-1.29,0-2.13.55-2.13,1.4s.69,1.11,1.83,1.25l1.09.13c2,.27,3.19,1.12,3.19,2.68,0,1.79-1.61,3-4.18,3a6.71,6.71,0,0,1-4-1.22l.75-1.21a4.91,4.91,0,0,0,3.23,1c1.55,0,2.5-.51,2.5-1.44,0-.7-.61-1.14-1.9-1.3L91.4,86c-2.11-.25-3.14-1.21-3.14-2.64,0-1.81,1.5-2.9,3.8-2.9a6.76,6.76,0,0,1,3.76,1Z" transform="translate(-51.29 -10.65)"/><path class="cls-3" d="M106.35,85.3c0,.21,0,.43,0,.61H98.9a3.07,3.07,0,0,0,3.2,2.92A4.39,4.39,0,0,0,105,87.7l.87,1.12A5.37,5.37,0,0,1,102,90.25a4.92,4.92,0,0,1-.1-9.84C104.48,80.41,106.33,82.41,106.35,85.3Zm-7.43-.71h5.77a2.83,2.83,0,0,0-2.81-2.74A2.93,2.93,0,0,0,98.92,84.59Z" transform="translate(-51.29 -10.65)"/><path class="cls-3" d="M120.73,78.81l-1.46,1A5,5,0,0,0,115,77.61a5.49,5.49,0,0,0,0,11,5,5,0,0,0,4.22-2.18l1.43,1A6.71,6.71,0,0,1,115,90.26a7.17,7.17,0,1,1,0-14.33A6.58,6.58,0,0,1,120.73,78.81Z" transform="translate(-51.29 -10.65)"/><path class="cls-3" d="M131.65,90.05H130V88.79a4.2,4.2,0,0,1-3.33,1.46,4.92,4.92,0,0,1,0-9.84A4.18,4.18,0,0,1,130,81.88V80.61h1.63Zm-8-4.72a3.25,3.25,0,1,0,3.25-3.39A3.24,3.24,0,0,0,123.63,85.33Z" transform="translate(-51.29 -10.65)"/><path class="cls-3" d="M136,90.05h-1.62V75.74H136Z" transform="translate(-51.29 -10.65)"/><path class="cls-3" d="M140.36,90.05h-1.62V75.74h1.62Z" transform="translate(-51.29 -10.65)"/><path class="cls-3" d="M149.45,82.71a5.81,5.81,0,0,0-3-.88c-1.29,0-2.12.55-2.12,1.4s.68,1.11,1.83,1.25l1.09.13c2,.27,3.19,1.12,3.19,2.68,0,1.79-1.61,3-4.18,3a6.72,6.72,0,0,1-4-1.22l.76-1.21a4.89,4.89,0,0,0,3.23,1c1.55,0,2.5-.51,2.5-1.44,0-.7-.62-1.14-1.9-1.3L145.74,86c-2.12-.25-3.14-1.21-3.14-2.64,0-1.81,1.5-2.9,3.79-2.9a6.8,6.8,0,0,1,3.77,1Z" transform="translate(-51.29 -10.65)"/><path class="cls-3" d="M158.89,84.49v5.56h-1.75V76.14h5.29c3.14,0,4.91,1.57,4.91,4.17s-1.77,4.18-4.91,4.18Zm0-6.7v5h3.5c2.05,0,3.14-.84,3.14-2.53s-1.09-2.52-3.14-2.52Z" transform="translate(-51.29 -10.65)"/><path class="cls-3" d="M175.45,80.72l-.4,1.6a3.64,3.64,0,0,0-1.62-.37C172,82,171,83.05,171,84.79v5.26h-1.62V80.61H171v1.24a3.33,3.33,0,0,1,2.76-1.44A4.21,4.21,0,0,1,175.45,80.72Z" transform="translate(-51.29 -10.65)"/><path class="cls-3" d="M185.86,85.33a5,5,0,1,1-5-4.92A4.85,4.85,0,0,1,185.86,85.33Zm-8.33,0a3.33,3.33,0,1,0,3.33-3.39A3.27,3.27,0,0,0,177.53,85.33Z" transform="translate(-51.29 -10.65)"/></svg>