<svg id="Layer_1" data-name="Layer 1" xmlns="http://www.w3.org/2000/svg" viewBox="0 0 99.85 36.22"><defs><style>.cls-1{fill:#fff;}.cls-2{fill:#00b2e3;}</style></defs><path id="Path_10121" data-name="Path 10121" class="cls-1" d="M4.68,22.48H0V0H4.68Z" transform="translate(0 0)"/><path id="Path_10122" data-name="Path 10122" class="cls-1" d="M23.27,22.48H18.59V12.73a2.83,2.83,0,0,0-.87-2.08,3,3,0,0,0-5,2.07h0v9.75H8V5.56h4.67v.91a5.15,5.15,0,0,1,3.64-1.33,6.46,6.46,0,0,1,5,2.21,7.84,7.84,0,0,1,2,5.4Z" transform="translate(0 0)"/><path id="Path_10123" data-name="Path 10123" class="cls-1" d="M33.11,10.24H30.89V22.48H26.21V10.24H24V5.56h2.22V0h4.67V5.56h2.23Z" transform="translate(0 0)"/><path id="Path_10124" data-name="Path 10124" class="cls-1" d="M43.3,9.8h-.78a2.92,2.92,0,0,0-2.94,2.9v9.78H34.9V5.56h4.68v.91A5.24,5.24,0,0,1,43.3,5.14Z" transform="translate(0 0)"/><path id="Path_10125" data-name="Path 10125" class="cls-1" d="M61.34,22.48H56.66V21.33q-1.39,1.61-4.67,1.6a8,8,0,0,1-6.07-2.58,9.44,9.44,0,0,1,0-12.63,8,8,0,0,1,6-2.6q3.21,0,4.67,1.63V5.53h4.67ZM56.66,14a4.18,4.18,0,1,0-1.21,3A4.15,4.15,0,0,0,56.66,14Z" transform="translate(0 0)"/><path id="Path_10126" data-name="Path 10126" class="cls-1" d="M80.58,22.48H75.91V21.33q-1.41,1.61-4.68,1.6a7.94,7.94,0,0,1-6.07-2.58A9,9,0,0,1,62.73,14a8.9,8.9,0,0,1,2.43-6.31,8,8,0,0,1,6-2.6c2.16,0,3.72.55,4.68,1.63V0h4.68ZM75.91,14a4.22,4.22,0,1,0-1.22,3A4.12,4.12,0,0,0,75.91,14Z" transform="translate(0 0)"/><path id="Path_10127" data-name="Path 10127" class="cls-1" d="M99.84,14A8.91,8.91,0,1,1,91,5.1a8.73,8.73,0,0,1,3.39.68A8.9,8.9,0,0,1,99.84,14Zm-4.67,0A4.22,4.22,0,1,0,94,17a4.08,4.08,0,0,0,1.2-3Z" transform="translate(0 0)"/><path id="Path_10132" data-name="Path 10132" class="cls-2" d="M1.26,31.13h5V27.35H7.3V36H6.24V32.16h-5V36H.2V27.35H1.26Z" transform="translate(0 0)"/><path id="Path_10133" data-name="Path 10133" class="cls-2" d="M14.74,33.14a3,3,0,1,1-3.08-3h.05a2.92,2.92,0,0,1,3,2.83Zm-5.05,0a2,2,0,1,0,2-2.05,2,2,0,0,0-2,1.94Z" transform="translate(0 0)"/><path id="Path_10134" data-name="Path 10134" class="cls-2" d="M20.92,33.6a2.62,2.62,0,0,1-5.23,0V30.28h1v3.27a1.63,1.63,0,0,0,3.26,0h0V30.28h1Z" transform="translate(0 0)"/><path id="Path_10135" data-name="Path 10135" class="cls-2" d="M26.29,31.55A3.51,3.51,0,0,0,24.47,31c-.78,0-1.29.33-1.29.85s.42.67,1.11.76l.66.08c1.22.16,1.94.67,1.94,1.62s-1,1.82-2.54,1.82a4.06,4.06,0,0,1-2.43-.74l.46-.73a3,3,0,0,0,2,.6c.94,0,1.52-.3,1.52-.87,0-.42-.37-.69-1.16-.79L24,33.55c-1.28-.15-1.9-.74-1.9-1.6,0-1.1.91-1.76,2.3-1.76a4,4,0,0,1,2.28.61Z" transform="translate(0 0)"/><path id="Path_10136" data-name="Path 10136" class="cls-2" d="M33,33.12v.37H28.51a1.87,1.87,0,0,0,1.95,1.78,2.69,2.69,0,0,0,1.75-.69l.53.68a3.27,3.27,0,0,1-2.35.87,3,3,0,0,1-.06-6A2.73,2.73,0,0,1,33,32.92,1.34,1.34,0,0,1,33,33.12Zm-4.5-.43H32A1.72,1.72,0,0,0,30.33,31,1.78,1.78,0,0,0,28.53,32.69Z" transform="translate(0 0)"/><path id="Path_10137" data-name="Path 10137" class="cls-2" d="M41.67,29l-.89.62a3,3,0,0,0-2.59-1.37,3.42,3.42,0,0,0,0,6.84,3,3,0,0,0,2.56-1.36l.87.63a4.06,4.06,0,0,1-3.43,1.76A4.35,4.35,0,0,1,34.29,34a4.56,4.56,0,0,1,0-4.55,4.33,4.33,0,0,1,3.9-2.18A4,4,0,0,1,41.67,29Z" transform="translate(0 0)"/><path id="Path_10139" data-name="Path 10139" class="cls-2" d="M50.74,36h-1v-8.9h1Z" transform="translate(0 0)"/><path class="cls-2" d="M48.18,36V30.28h-1v.77a2.52,2.52,0,0,0-2-.89,3,3,0,0,0,0,6,2.55,2.55,0,0,0,2-.89V36Zm-3-.94h0a1.93,1.93,0,1,1,1.94-1.94A1.92,1.92,0,0,1,45.17,35.07Z" transform="translate(0 0)"/><path id="Path_10140" data-name="Path 10140" class="cls-2" d="M53.35,36h-1v-8.9h1Z" transform="translate(0 0)"/><path id="Path_10141" data-name="Path 10141" class="cls-2" d="M58.82,31.55A3.51,3.51,0,0,0,57,31c-.78,0-1.28.33-1.28.85s.41.67,1.11.76l.66.08c1.21.16,1.93.67,1.93,1.62s-1,1.82-2.53,1.82a4.06,4.06,0,0,1-2.43-.74l.46-.73a3,3,0,0,0,2,.6c.94,0,1.52-.3,1.52-.87,0-.42-.38-.69-1.16-.79l-.67-.07c-1.28-.15-1.9-.74-1.9-1.6,0-1.1.91-1.76,2.3-1.76a4,4,0,0,1,2.28.61Z" transform="translate(0 0)"/><path id="Path_10142" data-name="Path 10142" class="cls-2" d="M64.71,32.55V36H63.65V27.35h3.21c1.9,0,3,1,3,2.6s-1.08,2.6-3,2.6Zm0-4.17v3.11h2.12c1.24,0,1.9-.52,1.9-1.57s-.66-1.57-1.9-1.57Z" transform="translate(0 0)"/><path id="Path_10143" data-name="Path 10143" class="cls-2" d="M74.54,30.35l-.24,1a2.14,2.14,0,0,0-1-.22,1.52,1.52,0,0,0-1.48,1.58.66.66,0,0,0,0,.14V36h-1V30.28h1V31a2,2,0,0,1,1.67-.87A2.42,2.42,0,0,1,74.54,30.35Z" transform="translate(0 0)"/><path id="Path_10144" data-name="Path 10144" class="cls-2" d="M80.64,33.14a3,3,0,1,1-3.08-3h0a2.94,2.94,0,0,1,3,2.85Zm-5,0a1.84,1.84,0,1,0,0-.11A.37.37,0,0,0,75.59,33.14Z" transform="translate(0 0)"/></svg>