<svg width="24px" height="24px" viewBox="0 0 24 24" version="1.1"
     xmlns="http://www.w3.org/2000/svg">
    <title>11CF6A06-4DEF-4DB4-8FC9-69BD13E002DE</title>
    <g id="Page-1" stroke="none" stroke-width="1" fill="none" fill-rule="evenodd">
        <g id="Chat-rating-options" transform="translate(-120.000000, -142.000000)"
           fill="#41C256" fill-rule="nonzero">
            <g id="Transfer-rating/unselected" transform="translate(46.000000, 79.000000)">
                <g id="Positive-Rating" transform="translate(62.000000, 51.000000)">
                    <path
                            d="M18,34.2375 L18,22.2375 C18,21.2908929 17.3282812,20.5714286 16.5,20.5714286 L13.5,20.5714286 C12.6717188,20.5714286 12,21.3391071 12,22.2375 L12,34.1892857 C12,35.1358929 12.6717188,35.8553571 13.5,35.8553571 L16.5,35.8553571 C17.3296875,35.9517857 18,35.2285714 18,34.2375 Z M36,22.2910714 C36,20.8714286 34.993125,19.7207143 33.75,19.7207143 L26.8828125,19.7207143 C27.9501562,17.6898214 28.5009375,15.3878571 28.5009375,14.5767857 C28.5,13.3135714 27.6328125,12 26.1796875,12 C23.2204688,12 24.9440625,16.0794643 21.1078125,19.5857143 L20.34375,20.2821429 C19.790625,20.7910714 19.509375,21.5357143 19.5046875,22.2857143 C19.5035906,22.2869679 19.5046875,22.2857143 19.5046875,22.2857143 L19.5,30.8571429 C19.5,31.6660714 19.8334219,32.4283929 20.4,32.91375 L22.0003125,34.2846429 C23.296875,35.4 24.8765625,36 26.4984375,36 L29.25,36 C30.493125,36 31.5,34.8498214 31.5,33.4296429 C31.5,33.2349107 31.4774766,33.0469821 31.4415938,32.8644643 C32.34375,32.5285714 33,31.575 33,30.4285714 C33,29.9385 32.8735781,29.4851786 32.6653594,29.0957143 C33.7078125,28.875 34.5,27.8303571 34.5,26.5767857 C34.5,25.9071429 34.2706406,25.3028571 33.90375,24.8453571 C35.071875,24.7553571 36,23.6517857 36,22.2910714 Z"
                            id="Thumbs-up-Icon"></path>
                </g>
            </g>
        </g>
    </g>
</svg>